HIERARCHY
ROOT Hips
{
 OFFSET 0.000000 0.000000 0.000000
 CHANNELS 6 Xposition Yposition Zposition Yrotation Xrotation Zrotation
 JOINT Chest
 {
  OFFSET 0.000000 9.585900 0.002600
  CHANNELS 3 Yrotation Xrotation Zrotation
  JOINT Chest2
  {
   OFFSET 0.000000 9.601200 -0.005300
   CHANNELS 3 Yrotation Xrotation Zrotation
   JOINT Chest3
   {
    OFFSET 0.000000 9.561800 0.000000
    CHANNELS 3 Yrotation Xrotation Zrotation
    JOINT Chest4
    {
     OFFSET 0.000000 9.552100 0.000000
     CHANNELS 3 Yrotation Xrotation Zrotation
     JOINT Neck
     {
      OFFSET 0.000000 14.453000 0.000000
      CHANNELS 3 Yrotation Xrotation Zrotation
      JOINT Head
      {
       OFFSET 0.000000 8.936500 -0.011300
       CHANNELS 3 Yrotation Xrotation Zrotation
       End Site
       {
        OFFSET 0.000000 17.073600 -0.006000
       }
      }
     }
     JOINT RightCollar
     {
      OFFSET -2.921100 9.558500 0.000000
      CHANNELS 3 Yrotation Xrotation Zrotation
      JOINT RightShoulder
      {
       OFFSET -13.519700 0.000000 0.000000
       CHANNELS 3 Yrotation Xrotation Zrotation
       JOINT RightElbow
       {
        OFFSET 0.000000 -29.696600 0.000000
        CHANNELS 3 Yrotation Xrotation Zrotation
        JOINT RightWrist
        {
         OFFSET 0.000000 -24.004700 0.000000
         CHANNELS 3 Yrotation Xrotation Zrotation
         End Site
         {
          OFFSET 0.000000 -17.728500 0.000000
         }
        }
       }
      }
     }
     JOINT LeftCollar
     {
      OFFSET 2.921100 9.558500 0.000000
      CHANNELS 3 Yrotation Xrotation Zrotation
      JOINT LeftShoulder
      {
       OFFSET 13.519700 0.000000 0.000000
       CHANNELS 3 Yrotation Xrotation Zrotation
       JOINT LeftElbow
       {
        OFFSET 0.000000 -29.696600 0.000000
        CHANNELS 3 Yrotation Xrotation Zrotation
        JOINT LeftWrist
        {
         OFFSET 0.000000 -24.004700 0.000000
         CHANNELS 3 Yrotation Xrotation Zrotation
         End Site
         {
          OFFSET 0.000000 -17.728500 0.000000
         }
        }
       }
      }
     }
    }
   }
  }
 }
 JOINT RightHip
 {
  OFFSET -7.771700 -0.012900 -0.001300
  CHANNELS 3 Yrotation Xrotation Zrotation
  JOINT RightKnee
  {
   OFFSET 0.000000 -40.869800 0.001200
   CHANNELS 3 Yrotation Xrotation Zrotation
   JOINT RightAnkle
   {
    OFFSET 0.000000 -39.717900 0.002100
    CHANNELS 3 Yrotation Xrotation Zrotation
    JOINT RightToe
    {
     OFFSET 0.000000 -4.965400 11.033500
     CHANNELS 3 Yrotation Xrotation Zrotation
     End Site
     {
      OFFSET 0.000000 -1.423100 5.872300
     }
    }
   }
  }
 }
 JOINT LeftHip
 {
  OFFSET 7.771700 -0.012900 -0.001300
  CHANNELS 3 Yrotation Xrotation Zrotation
  JOINT LeftKnee
  {
   OFFSET 0.000000 -40.869800 0.001200
   CHANNELS 3 Yrotation Xrotation Zrotation
   JOINT LeftAnkle
   {
    OFFSET 0.000000 -39.717900 0.002100
    CHANNELS 3 Yrotation Xrotation Zrotation
    JOINT LeftToe
    {
     OFFSET 0.000000 -4.965400 11.033500
     CHANNELS 3 Yrotation Xrotation Zrotation
     End Site
     {
      OFFSET 0.000000 -1.423100 5.872300
     }
    }
   }
  }
 }
}
MOTION
Frames: 9
Frame Time: 0.008333
-16.664244 52.807653 10.705513 -177.582238 -19.567072 -1.987146 0.812425 16.111841 0.662513 0.072772 1.590155 0.060364 0.126134 2.665808 0.095488 0.732140 14.285127 0.611776 -1.336987 17.954443 0.930937 -1.620802 -6.815759 1.284889 -1.799715 -0.648060 2.219213 -3.445148 -6.343893 -3.234200 -82.637639 -73.428718 111.149477 -7.222207 -3.200210 -3.495665 -5.062403 -1.252014 1.491126 6.228354 -5.139023 7.923598 71.258625 -58.617389 -108.893657 3.178120 -4.155887 7.129113 2.273964 -59.000747 10.651878 -174.537622 85.937347 -175.812673 -12.564073 -22.810552 10.829566 -0.010315 -0.043210 -0.035079 3.388686 -57.998086 -3.350354 120.935008 77.528517 119.042033 -6.054184 -18.683760 -1.791744 0.004334 0.044362 0.002334
-16.664448 52.807642 10.704187 -177.582752 -19.573527 -1.982413 0.809949 16.116909 0.659369 0.073790 1.590897 0.060030 0.123197 2.665023 0.101126 0.730708 14.289592 0.613752 -1.332606 17.956739 0.922477 -1.616329 -6.809567 1.280366 -1.788698 -0.644801 2.211763 -3.411212 -6.369160 -3.244141 -82.644376 -73.415614 111.140195 -7.222563 -3.203430 -3.479280 -5.064554 -1.252981 1.484174 6.227596 -5.141281 7.921411 71.277322 -58.611589 -108.922416 3.184951 -4.169679 7.110703 2.297472 -58.993410 10.638906 -174.548411 85.938675 -175.809131 -12.678146 -22.813515 10.868205 0.014458 -0.022453 -0.033413 3.396394 -57.991703 -3.357718 120.935720 77.523003 119.040812 -6.056531 -18.684414 -1.790849 0.001091 0.042277 0.002528
-16.664725 52.807523 10.702676 -177.584241 -19.581728 -1.976718 0.810895 16.124029 0.656804 0.073269 1.591794 0.058836 0.120820 2.664766 0.102379 0.727900 14.292133 0.614645 -1.324378 17.968643 0.923119 -1.605714 -6.800633 1.273971 -1.766823 -0.640592 2.215696 -3.406719 -6.384531 -3.255146 -82.714367 -73.403075 111.239161 -7.218315 -3.188881 -3.520770 -5.066225 -1.251477 1.482147 6.226718 -5.144701 7.924151 71.343957 -58.580677 -109.030577 3.176005 -4.152334 7.126739 2.309089 -58.987785 10.655723 -174.535000 85.941121 -175.768459 -12.955970 -22.792560 10.917980 0.005385 -0.008145 -0.020673 3.402183 -57.984696 -3.364856 120.964080 77.520923 119.067792 -6.052887 -18.687100 -1.795065 -0.000923 0.039291 0.005128
-16.664754 52.806950 10.702044 -177.584560 -19.585140 -1.972935 0.806054 16.123214 0.655251 0.072656 1.593201 0.059164 0.123117 2.667093 0.099935 0.725431 14.293907 0.615580 -1.320246 17.971741 0.922522 -1.598704 -6.794360 1.273795 -1.757600 -0.640733 2.213777 -3.400228 -6.389570 -3.258067 -82.802817 -73.388758 111.370624 -7.239013 -3.212037 -3.477534 -5.066535 -1.246621 1.481160 6.224151 -5.153996 7.933826 71.380244 -58.556267 -109.092325 3.175966 -4.156507 7.117832 2.323219 -58.989104 10.669014 -174.190251 85.943539 -175.394197 -13.200949 -22.767162 10.962386 -0.002783 0.000038 -0.008552 3.401842 -57.983754 -3.366752 120.983586 77.517939 119.084227 -6.050340 -18.687822 -1.797942 -0.005020 0.037570 0.005697
-16.664185 52.806239 10.701493 -177.584761 -19.588929 -1.973345 0.805672 16.126066 0.656439 0.071855 1.594303 0.059087 0.124006 2.666780 0.099411 0.724496 14.294510 0.615986 -1.318866 17.972671 0.922422 -1.594686 -6.790386 1.274749 -1.751735 -0.640849 2.214314 -3.393082 -6.392987 -3.261047 -82.861435 -73.375943 111.477750 -7.256377 -3.238687 -3.469014 -5.074240 -1.238518 1.480308 6.211080 -5.171321 7.957154 71.403236 -58.528304 -109.099466 3.178141 -4.164210 7.101791 2.320010 -58.986721 10.675701 -174.082055 85.943240 -175.285870 -13.252350 -22.756777 10.976697 -0.003299 -0.002918 -0.004726 3.398647 -57.980030 -3.362921 120.989304 77.517551 119.089978 -6.050165 -18.692529 -1.801525 -0.002098 0.040171 0.006508
-16.664191 52.805712 10.700210 -177.576870 -19.598214 -1.973955 0.798633 16.135001 0.655236 0.070900 1.594851 0.059468 0.121703 2.669958 0.099646 0.721620 14.299476 0.615681 -1.311071 17.974488 0.925496 -1.592218 -6.794447 1.273410 -1.738944 -0.645904 2.213911 -3.374062 -6.403735 -3.264080 -82.949436 -73.340063 111.644715 -7.254758 -3.253393 -3.523728 -5.069628 -1.245774 1.478591 6.196978 -5.177085 7.969344 71.446190 -58.511112 -109.168734 3.180435 -4.165449 7.125033 2.311410 -58.974983 10.658208 -174.278296 85.938604 -175.500864 -13.143119 -22.763857 10.963468 0.001853 -0.012152 -0.007536 3.388828 -57.972453 -3.363591 120.995222 77.514303 119.094145 -6.048581 -18.694160 -1.803736 -0.004275 0.040765 0.005564
-16.663855 52.804941 10.699465 -177.575746 -19.605149 -1.974851 0.798547 16.141649 0.656184 0.070353 1.594198 0.060697 0.120407 2.671772 0.099955 0.714944 14.302736 0.610905 -1.301601 17.979731 0.929967 -1.575529 -6.774374 1.282462 -1.726704 -0.645067 2.224420 -3.319394 -6.420812 -3.274960 -83.011875 -73.310481 111.722070 -7.261093 -3.281426 -3.543050 -5.062001 -1.249953 1.479433 6.181053 -5.180879 7.979210 71.527394 -58.496907 -109.280127 3.190824 -4.164747 7.141858 2.308632 -58.968501 10.654862 -174.337438 85.936982 -175.565687 -13.100280 -22.761734 10.956540 0.003444 -0.017420 -0.006947 3.386595 -57.966259 -3.363162 121.026567 77.520762 119.128745 -6.040758 -18.699471 -1.808096 -0.000841 0.042240 0.005550
-16.663487 52.804035 10.699018 -177.576243 -19.611092 -1.975639 0.797641 16.146663 0.658731 0.071871 1.594554 0.059401 0.119965 2.672209 0.099887 0.712309 14.305085 0.611773 -1.295490 17.984887 0.933200 -1.571628 -6.765159 1.284711 -1.720273 -0.645923 2.223406 -3.293021 -6.427361 -3.276535 -83.050182 -73.283398 111.795470 -7.270770 -3.315017 -3.549494 -5.068288 -1.250490 1.474247 6.172845 -5.188619 7.989841 71.558377 -58.486556 -109.311568 3.188613 -4.185718 7.118113 2.307036 -58.963168 10.649186 -174.307646 85.935722 -175.546758 -13.008060 -22.762139 10.944128 0.006291 -0.023353 -0.008613 3.387788 -57.959633 -3.364845 121.021419 77.520078 119.129831 -6.043331 -18.703015 -1.812346 0.001221 0.043202 0.004563
-16.664009 52.802997 10.698854 -177.572950 -19.616172 -1.972112 0.792890 16.146729 0.654573 0.072776 1.598796 0.059081 0.117724 2.672909 0.099340 0.712462 14.306850 0.611830 -1.291512 17.992733 0.937386 -1.566450 -6.755314 1.287223 -1.704889 -0.645332 2.222946 -3.283336 -6.432275 -3.277538 -83.079808 -73.259064 111.869421 -7.273153 -3.341669 -3.571462 -5.081602 -1.245117 1.474772 6.172929 -5.203570 7.997289 71.667180 -58.473154 -109.459607 3.193555 -4.171858 7.160571 2.312176 -58.958535 10.633115 -174.194024 85.929466 -175.452798 -12.884754 -22.765331 10.934934 0.009669 -0.029152 -0.011772 3.393576 -57.953636 -3.375258 121.014988 77.528138 119.122636 -6.037112 -18.698536 -1.808042 -0.001865 0.042563 0.000567
